<?xml version="1.0" standalone="no"?>
<!DOCTYPE svg PUBLIC "-//W3C//DTD SVG 1.1//EN" "http://www.w3.org/Graphics/SVG/1.1/DTD/svg11.dtd">
<svg xmlns="http://www.w3.org/2000/svg" width="1600" height="529" viewBox="0 0 1600 529" fill="none">
<path d="M0 4.36876L0 52.6748H62.4977V198.139H124.722V52.6748H187.22V4.36876H0Z" fill="black"/>
<path d="M265.873 198.139V131.547C265.873 111.079 274.879 100.162 291.527 100.162C307.902 100.162 316.09 109.714 316.09 128.545V198.139H376.404V122.541C376.404 80.5122 355.935 57.5873 318.819 57.5873C294.529 57.5873 275.971 67.6852 265.873 86.5164V0.275024H205.832V198.139H265.873Z" fill="black"/>
<path d="M568.34 132.912C568.34 85.9705 537.774 57.5873 482.918 57.5873C430.245 57.5873 396.404 85.9705 396.404 130.456C396.404 175.487 429.972 202.233 485.92 202.233C521.126 202.233 549.509 189.133 564.52 167.845L520.58 148.195C513.211 158.293 500.93 164.024 487.284 164.024C468.18 164.024 455.353 155.837 453.17 142.191H568.34V132.912ZM453.17 112.989C454.535 98.2517 464.632 89.2455 482.099 89.2455C499.566 89.2455 509.664 98.7976 509.664 112.989H453.17Z" fill="black"/>
<path d="M211.783 471.055L168.935 394.911C194.862 384.54 206.597 362.707 206.597 339.509C206.597 303.211 183.126 277.284 127.179 277.284H16.6479V471.055H78.8726V403.371H108.348L144.099 471.055H211.783ZM112.714 318.222C132.637 318.222 141.097 326.682 141.097 340.601C141.097 355.065 132.364 364.345 112.714 364.345H78.8726V318.222H112.714Z" fill="black"/>
<path d="M387.64 405.828C387.64 358.886 357.074 330.503 302.218 330.503C249.545 330.503 215.704 358.886 215.704 403.371C215.704 448.403 249.272 475.148 305.22 475.148C340.426 475.148 368.809 462.048 383.82 440.761L339.88 421.111C332.511 431.209 320.23 436.94 306.584 436.94C287.48 436.94 274.653 428.753 272.47 415.107H387.64V405.828ZM272.47 385.905C273.835 371.167 283.932 362.161 301.399 362.161C318.866 362.161 328.964 371.713 328.964 385.905H272.47Z" fill="black"/>
<path d="M518.606 475.148C560.635 475.148 587.653 446.765 587.653 402.007C587.653 358.886 561.181 330.503 521.062 330.503C498.956 330.503 480.943 338.145 470.027 351.79V273.191H409.985V471.055H464.841L467.844 450.859C477.941 466.142 496.5 475.148 518.606 475.148ZM497.591 437.486C479.306 437.486 468.389 426.023 468.389 406.374V397.64C468.389 379.901 479.579 368.438 497.045 368.165C514.785 367.892 525.429 380.719 525.429 402.28C525.429 424.932 515.058 437.486 497.591 437.486Z" fill="black"/>
<path d="M691.939 475.148C743.793 475.148 781.456 449.494 781.456 402.553C781.456 355.611 743.793 330.503 691.939 330.503C640.085 330.503 602.423 355.611 602.423 402.553C602.423 449.494 640.085 475.148 691.939 475.148ZM691.939 437.486C674.473 437.486 663.283 425.205 663.283 402.553C663.283 379.628 674.473 368.165 691.939 368.165C709.406 368.165 720.868 379.628 720.868 402.553C720.868 425.205 709.406 437.486 691.939 437.486Z" fill="black"/>
<path d="M885.699 475.148C937.553 475.148 975.215 449.494 975.215 402.553C975.215 355.611 937.553 330.503 885.699 330.503C833.845 330.503 796.182 355.611 796.182 402.553C796.182 449.494 833.845 475.148 885.699 475.148ZM885.699 437.486C868.232 437.486 857.043 425.205 857.043 402.553C857.043 379.628 868.232 368.165 885.699 368.165C903.165 368.165 914.628 379.628 914.628 402.553C914.628 425.205 903.165 437.486 885.699 437.486Z" fill="black"/>
<path d="M1009.14 371.713V421.384C1009.14 459.592 1034.52 474.057 1076.83 474.057C1090.47 474.057 1100.3 472.692 1111.49 469.963V426.569C1107.66 427.388 1101.93 428.207 1094.02 428.207C1077.64 428.207 1069.18 420.565 1069.18 406.374V371.713H1111.76V334.597H1069.18V282.197L1009.14 304.03V334.597H979.667V371.713H1009.14Z" fill="black"/>
<path d="M1196.31 317.676V271.28H1134.63V317.676H1196.31ZM1195.49 471.055V334.597H1135.45V471.055H1195.49Z" fill="black"/>
<path d="M1288.77 471.055V405.009C1288.77 384.267 1297.78 373.624 1314.97 373.624C1331.62 373.624 1338.99 383.176 1338.99 404.19V471.055H1399.3V395.457C1399.3 352.882 1379.65 330.503 1342.27 330.503C1316.61 330.503 1297.78 341.42 1287.14 362.434V334.597H1228.73V471.055H1288.77Z" fill="black"/>
<path d="M1600 310.034C1597.27 309.488 1594.81 309.488 1591.81 309.488C1568.07 309.488 1551.97 318.495 1546.78 335.688C1534.77 332.14 1520.58 330.503 1503.93 330.503C1452.9 330.503 1422.88 347.151 1422.88 376.08C1422.88 393.274 1433.52 406.373 1452.35 414.288C1431.07 420.019 1419.33 432.301 1419.33 448.675C1419.33 461.23 1427.79 470.782 1441.44 475.694C1425.06 480.334 1416.87 487.702 1416.87 498.346C1416.87 517.996 1444.98 528.367 1497.93 528.367C1565.34 528.367 1599.18 510.081 1599.18 474.33C1599.18 446.765 1580.9 433.119 1542.41 432.846H1481.01C1470.91 432.846 1466 429.844 1466 424.113C1466 422.203 1466.82 420.565 1468.18 419.473C1478.55 421.657 1490.56 423.021 1503.93 423.021C1554.7 423.021 1584.99 405.282 1584.99 376.08C1584.99 363.799 1579.53 353.701 1569.16 346.059C1573.25 344.695 1578.17 344.149 1583.9 344.149C1589.36 344.149 1594.27 344.967 1600 346.059V310.034ZM1503.93 396.549C1490.29 396.549 1481.83 388.634 1481.83 376.08C1481.83 364.072 1490.02 356.976 1503.93 356.976C1517.85 356.976 1526.04 364.072 1526.04 376.08C1526.04 388.634 1517.85 396.549 1503.93 396.549ZM1537.23 479.788C1546.51 479.788 1550.6 483.063 1550.6 489.067C1550.6 498.892 1538.32 502.167 1501.75 502.167C1473.37 502.167 1458.9 497.8 1458.9 486.884C1458.9 484.154 1459.45 481.971 1461.09 479.515C1462.45 479.788 1464.09 479.788 1465.73 479.788H1537.23Z" fill="black"/>
</svg>